<svg width="70" height="77" viewBox="0 0 70 77" fill="none" xmlns="http://www.w3.org/2000/svg">
<path d="M0 10.353C0 4.83018 4.47715 0.353027 10 0.353027H60C65.5229 0.353027 70 4.83018 70 10.353V66.353C70 71.8759 65.5229 76.353 60 76.353H10C4.47715 76.353 0 71.8759 0 66.353V10.353Z" fill="#B9EAA8"/>
<path d="M36.1959 51.6436C35.4883 51.6456 34.8093 51.3642 34.3106 50.8622L23.8613 40.4155C23.3099 39.866 23.0272 39.1023 23.0879 38.3262L23.7546 29.5716C23.8498 28.2538 24.9005 27.2071 26.2186 27.1169L34.9733 26.4502C35.0426 26.4355 35.1106 26.4355 35.1799 26.4355C35.8861 26.4347 36.5634 26.716 37.0613 27.2169L47.5106 37.6622C48.0109 38.1623 48.292 38.8408 48.292 39.5482C48.292 40.2556 48.0109 40.9341 47.5106 41.4342L38.0813 50.8622C37.5824 51.364 36.9035 51.6453 36.1959 51.6436ZM30.5386 31.2249C29.3317 31.2252 28.2755 32.0361 27.9634 33.202C27.6513 34.3678 28.1612 35.598 29.2065 36.2012C30.2518 36.8045 31.572 36.6304 32.4253 35.7769L32.4346 35.7689L32.4439 35.7595L32.4333 35.7689C33.1912 35.0043 33.415 33.859 33.0007 32.8653C32.5864 31.8716 31.6152 31.2246 30.5386 31.2249Z" fill="#40BB15"/>
</svg>
