<svg width="247" height="575" viewBox="0 0 247 575" fill="none" xmlns="http://www.w3.org/2000/svg">
<path d="M-185.734 81.4346C-185.734 126.547 -167.871 202.615 -235.325 284.847C-301.211 365.167 -210.57 110.83 -119.537 95.0875C-13.1252 76.686 -196.514 502.765 -205.97 416.053C-211.26 367.541 -57.3381 112.91 -14.042 155.195C41.0361 208.987 -103.389 516.239 -137.113 511.186C-196.606 502.271 16.1737 148.847 76.5487 179.286C148.542 215.583 29.8771 457.803 -25.1858 470.795C-69.2361 481.189 95.0591 246.45 205 300.174" stroke="black" stroke-width="8" stroke-linecap="round"/>
<path d="M217.371 284.251C218.468 282.334 221.405 283.347 221.086 285.533L220.568 289.083C220.376 290.399 221.498 291.532 222.816 291.354L237.894 289.312C240.024 289.023 241.047 291.837 239.231 292.985L228.227 299.933C226.849 300.803 227.035 302.869 228.547 303.479L235.936 306.458C237.782 307.202 237.526 309.892 235.573 310.276L230.794 311.213C229.609 311.446 228.898 312.669 229.284 313.814L230.645 317.86C231.22 319.571 229.414 321.108 227.817 320.267L221.755 317.075C220.12 316.214 218.292 317.841 218.957 319.564L222.229 328.049C223 330.049 220.511 331.697 218.971 330.205L209.409 320.943C208.777 320.331 207.82 320.203 207.05 320.629L196.316 326.56C194.452 327.59 192.483 325.38 193.721 323.647L199.918 314.972C200.537 314.105 200.369 312.906 199.536 312.244L188.583 303.536C187.101 302.358 187.934 299.971 189.828 299.971H198.248C199.24 299.971 200.082 299.244 200.226 298.263L201.553 289.28C201.856 287.225 204.705 286.938 205.412 288.892L207.546 294.79C208.125 296.393 210.316 296.583 211.162 295.103L217.371 284.251Z" fill="#CD4631"/>
</svg>
