<svg width="43" height="34" viewBox="0 0 43 34" fill="none" xmlns="http://www.w3.org/2000/svg">
<path d="M14.3015 16.0612C15.9007 16.7648 17.148 17.8202 18.0436 19.2275C18.9391 20.6348 19.3869 22.2979 19.3869 24.2169C19.3869 26.9675 18.5233 29.2063 16.7962 30.9334C15.0691 32.5965 12.8623 33.4281 10.1757 33.4281C7.48905 33.4281 5.25022 32.5645 3.45915 30.8374C1.73205 29.1103 0.868501 26.9035 0.868501 24.2169C0.868501 22.9376 1.02842 21.6582 1.34825 20.3789C1.66808 19.0996 2.37172 17.1806 3.45915 14.6219L9.02425 0.805098H18.5233L14.3015 16.0612ZM36.9457 16.0612C38.5449 16.7648 39.7922 17.8202 40.6878 19.2275C41.5833 20.6348 42.0311 22.2979 42.0311 24.2169C42.0311 26.9675 41.1675 29.2063 39.4404 30.9334C37.7133 32.5965 35.5065 33.4281 32.8199 33.4281C30.1333 33.4281 27.8944 32.5645 26.1034 30.8374C24.3763 29.1103 23.5127 26.9035 23.5127 24.2169C23.5127 22.9376 23.6726 21.6582 23.9925 20.3789C24.3123 19.0996 25.0159 17.1806 26.1034 14.6219L31.6685 0.805098H41.1675L36.9457 16.0612Z" fill="#CD4631"/>
</svg>
