<svg width="24" height="24" viewBox="0 0 24 24" fill="none" xmlns="http://www.w3.org/2000/svg">
<g clip-path="url(#clip0_301_467)" filter="url(#filter0_d_301_467)">
<path d="M11 5.09106V7.51564V8.48474V10.9093H13V8.48474V7.51564V5.09106H11Z" fill="#FAB908"/>
<path d="M5.00001 8.4546C5.5523 8.4546 6.00002 8.00688 6.00002 7.45459C6.00002 6.9023 5.5523 6.45459 5.00001 6.45459C4.44772 6.45459 4 6.9023 4 7.45459C4 8.00688 4.44772 8.4546 5.00001 8.4546Z" fill="#0066D9"/>
<path d="M5.00001 9.54554C5.5523 9.54554 6.00002 9.09783 6.00002 8.54554C6.00002 7.99325 5.5523 7.54553 5.00001 7.54553C4.44772 7.54553 4 7.99325 4 8.54554C4 9.09783 4.44772 9.54554 5.00001 9.54554Z" fill="#0066D9"/>
<path d="M6.00002 7.45471H4V8.54563H6.00002V7.45471Z" fill="#0066D9"/>
<path d="M19 9.54554C19.5523 9.54554 20 9.09783 20 8.54554C20 7.99325 19.5523 7.54553 19 7.54553C18.4477 7.54553 18 7.99325 18 8.54554C18 9.09783 18.4477 9.54554 19 9.54554Z" fill="#4285F4"/>
<path d="M19 8.4546C19.5523 8.4546 20 8.00688 20 7.45459C20 6.9023 19.5523 6.45459 19 6.45459C18.4477 6.45459 18 6.9023 18 7.45459C18 8.00688 18.4477 8.4546 19 8.4546Z" fill="#4285F4"/>
<path d="M18 8.54563H20V7.45471H18V8.54563Z" fill="#4285F4"/>
<path d="M8.45435 11.7273C9.00662 11.7273 9.45435 11.2796 9.45435 10.7273C9.45435 10.175 9.00662 9.72729 8.45435 9.72729C7.90206 9.72729 7.45435 10.175 7.45435 10.7273C7.45435 11.2796 7.90206 11.7273 8.45435 11.7273Z" fill="#EA4335"/>
<path d="M8.45435 12.8184C9.00662 12.8184 9.45435 12.3707 9.45435 11.8184C9.45435 11.2661 9.00662 10.8184 8.45435 10.8184C7.90206 10.8184 7.45435 11.2661 7.45435 11.8184C7.45435 12.3707 7.90206 12.8184 8.45435 12.8184Z" fill="#EA4335"/>
<path d="M9.45435 10.7275H7.45435V11.8185H9.45435V10.7275Z" fill="#EA4335"/>
<path d="M8.45435 5.18188C9.00662 5.18188 9.45435 4.73416 9.45435 4.18189C9.45435 3.6296 9.00662 3.18188 8.45435 3.18188C7.90206 3.18188 7.45435 3.6296 7.45435 4.18189C7.45435 4.73416 7.90206 5.18188 8.45435 5.18188Z" fill="#EA4335"/>
<path d="M8.45435 8.72718C9.00662 8.72718 9.45435 8.27947 9.45435 7.72718C9.45435 7.17489 9.00662 6.72717 8.45435 6.72717C7.90206 6.72717 7.45435 7.17489 7.45435 7.72718C7.45435 8.27947 7.90206 8.72718 8.45435 8.72718Z" fill="#EA4335"/>
<path d="M9.45435 4.18164H7.45435V7.74986H9.45435V4.18164Z" fill="#EA4335"/>
<path d="M15.5457 6.27284C16.0979 6.27284 16.5457 5.82513 16.5457 5.27284C16.5457 4.72055 16.0979 4.27283 15.5457 4.27283C14.9934 4.27283 14.5457 4.72055 14.5457 5.27284C14.5457 5.82513 14.9934 6.27284 15.5457 6.27284Z" fill="#34A853"/>
<path d="M15.5457 5.18188C16.0979 5.18188 16.5457 4.73416 16.5457 4.18189C16.5457 3.6296 16.0979 3.18188 15.5457 3.18188C14.9934 3.18188 14.5457 3.6296 14.5457 4.18189C14.5457 4.73416 14.9934 5.18188 15.5457 5.18188Z" fill="#34A853"/>
<path d="M14.5454 5.27267H16.5455V4.18176H14.5454V5.27267Z" fill="#34A853"/>
<path d="M12 3.09107C12.5523 3.09107 13 2.64336 13 2.09107C13 1.53878 12.5523 1.09106 12 1.09106C11.4477 1.09106 11 1.53878 11 2.09107C11 2.64336 11.4477 3.09107 12 3.09107Z" fill="#FAB908"/>
<path d="M11.9999 2.00001C12.5523 2.00001 13 1.55229 13 1C13 0.447718 12.5523 0 11.9999 0C11.4477 0 10.9999 0.447718 10.9999 1C10.9999 1.55229 11.4477 2.00001 11.9999 2.00001Z" fill="#FAB908"/>
<path d="M11 2.09092H13V1H11V2.09092Z" fill="#FAB908"/>
<path d="M12 16C12.5523 16 13 15.5523 13 15C13 14.4477 12.5523 14 12 14C11.4477 14 11 14.4477 11 15C11 15.5523 11.4477 16 12 16Z" fill="#FAB908"/>
<path d="M12 14.9093C12.5523 14.9093 13 14.4616 13 13.9093C13 13.357 12.5523 12.9093 12 12.9093C11.4477 12.9093 11 13.357 11 13.9093C11 14.4616 11.4477 14.9093 12 14.9093Z" fill="#FAB908"/>
<path d="M11 15.0002H13V13.9093H11V15.0002Z" fill="#FAB908"/>
<path d="M15.5457 12.8184C16.0979 12.8184 16.5457 12.3707 16.5457 11.8184C16.5457 11.2661 16.0979 10.8184 15.5457 10.8184C14.9934 10.8184 14.5457 11.2661 14.5457 11.8184C14.5457 12.3707 14.9934 12.8184 15.5457 12.8184Z" fill="#34A853"/>
<path d="M15.5457 9.27284C16.0979 9.27284 16.5457 8.82512 16.5457 8.27283C16.5457 7.72054 16.0979 7.27283 15.5457 7.27283C14.9934 7.27283 14.5457 7.72054 14.5457 8.27283C14.5457 8.82512 14.9934 9.27284 15.5457 9.27284Z" fill="#34A853"/>
<path d="M14.5454 11.8182H16.5455V8.27271H14.5454V11.8182Z" fill="#34A853"/>
<path d="M12 6.09097C12.5523 6.09097 13 5.64322 13 5.09097C13 4.53868 12.5523 4.09094 12 4.09094C11.4477 4.09094 11 4.53868 11 5.09097C11 5.64322 11.4477 6.09097 12 6.09097Z" fill="#FAB908"/>
<path d="M12 11.9093C12.5523 11.9093 13 11.4616 13 10.9093C13 10.357 12.5523 9.9093 12 9.9093C11.4477 9.9093 11 10.357 11 10.9093C11 11.4616 11.4477 11.9093 12 11.9093Z" fill="#FAB908"/>
</g>
<defs>
<filter id="filter0_d_301_467" x="0" y="0" width="24" height="24" filterUnits="userSpaceOnUse" color-interpolation-filters="sRGB">
<feFlood flood-opacity="0" result="BackgroundImageFix"/>
<feColorMatrix in="SourceAlpha" type="matrix" values="0 0 0 0 0 0 0 0 0 0 0 0 0 0 0 0 0 0 127 0" result="hardAlpha"/>
<feOffset dy="4"/>
<feGaussianBlur stdDeviation="2"/>
<feComposite in2="hardAlpha" operator="out"/>
<feColorMatrix type="matrix" values="0 0 0 0 0 0 0 0 0 0 0 0 0 0 0 0 0 0 0.25 0"/>
<feBlend mode="normal" in2="BackgroundImageFix" result="effect1_dropShadow_301_467"/>
<feBlend mode="normal" in="SourceGraphic" in2="effect1_dropShadow_301_467" result="shape"/>
</filter>
<clipPath id="clip0_301_467">
<rect width="16" height="16" fill="white" transform="translate(4)"/>
</clipPath>
</defs>
</svg>
